<svg width="874" height="209" viewBox="0 0 874 209" fill="none" xmlns="http://www.w3.org/2000/svg">
<path d="M445.129 63.2005L533.699 1.31055H650.679V72.0805H515.219V158.171H580.489V135.571H554.359V99.1505L650.679 99.3506V208.171H445.029L445.129 63.2005Z" fill="#FE854E"/>
<path d="M445.129 63.2005L533.699 1.31055H650.679V72.0805H515.219V158.171H580.489V135.571H554.359V99.1505L650.679 99.3506V208.171H445.029L445.129 63.2005Z" fill="#FE854E"/>
<path d="M429.09 0V208.17H370.58L290.26 141.33V208.17H222.51V52.97L273.44 2.60999L361.71 74.75V0H429.09Z" fill="#FE854E"/>
<path d="M65.74 208.24H0V39.92L48.91 0.769989L103.28 54.68L157.88 0H206.57V208.17H141.19V105.01H66.35L65.74 208.24Z" fill="#FE854E"/>
<path fill-rule="evenodd" clip-rule="evenodd" d="M873.189 66.2605V208.181H738.029L666.619 138.411V1.31055H807.229L873.189 66.2605ZM807.609 72.0805H741.749V137.941H807.609V72.0805Z" fill="#FE854E"/>
<path d="M445.129 63.2005L533.699 1.31055H650.679V72.0805H515.219V158.171H580.489V135.571H554.359V99.1505L650.679 99.3506V208.171H445.029L445.129 63.2005Z" fill="#FE854E"/>
<path d="M429.09 0V208.17H370.58L290.26 141.33V208.17H222.51V52.97L273.44 2.60999L361.71 74.75V0H429.09Z" fill="#FE854E"/>
<path d="M65.74 208.24H0V39.92L48.91 0.769989L103.28 54.68L157.88 0H206.57V208.17H141.19V105.01H66.35L65.74 208.24Z" fill="#FE854E"/>
<path fill-rule="evenodd" clip-rule="evenodd" d="M873.189 66.2605V208.181H738.029L666.619 138.411V1.31055H807.229L873.189 66.2605ZM807.609 72.0805H741.749V137.941H807.609V72.0805Z" fill="#FE854E"/>
</svg>
