<svg xmlns="http://www.w3.org/2000/svg" xmlns:xlink="http://www.w3.org/1999/xlink" xmlns:inkscape="http://www.inkscape.org/namespaces/inkscape" version="1.1" width="294.272" height="294.751" viewBox="0 0 294.272 294.751">
<defs>
<clipPath id="clip_1">
<path transform="matrix(1,0,0,-1,0,294.751)" d="M0 294.751H294.272V0H0Z"/>
</clipPath>
</defs>
<g inkscape:groupmode="layer" inkscape:label="Layer 1">
<path transform="matrix(1,0,0,-1,0,294.751)" d="M.136 .136H294.136V294.61399H.136Z" fill="#ffffff"/>
<g clip-path="url(#clip_1)">
<path transform="matrix(1,0,0,-1,0,294.751)" stroke-width=".272" stroke-linecap="butt" stroke-miterlimit="10" stroke-linejoin="miter" fill="none" stroke="#000000" d="M294.136 .136H.13598633V294.61399H294.136Z"/>
</g>
<path transform="matrix(1,0,0,-1,149.4585,134.44132)" d="M0 0 24.112 16.877H55.956V-2.42H19.082V-25.895H36.848V-19.732H29.735V-9.803L55.956-9.855V-39.528H-.026Z" fill="#fe854e"/>
<path transform="matrix(1,0,0,-1,145.0921,117.208209)" d="M0 0V-56.761H-15.928L-37.793-38.536V-56.761H-56.234V-14.443L-42.37-.713-18.341-20.381V0Z" fill="#fe854e"/>
<path transform="matrix(1,0,0,-1,46.1804,173.98682)" d="M0 0H-17.896V45.892L-4.58 56.568 10.221 41.87 25.083 56.779H38.338V.017H20.539V28.145H.168Z" fill="#fe854e"/>
<path transform="matrix(1,0,0,-1,0,294.751)" d="M248.136 139.931H230.20801V157.888H248.136ZM248.03 177.186H209.754V139.803L229.195 120.78H265.988V159.476Z" fill="#fe854e"/>
</g>
</svg>
